<?xml version="1.0" standalone="no"?>
<!DOCTYPE svg PUBLIC "-//W3C//DTD SVG 20010904//EN"
 "http://www.w3.org/TR/2001/REC-SVG-20010904/DTD/svg10.dtd">
<svg version="1.0" xmlns="http://www.w3.org/2000/svg"
 width="836.000000pt" height="980.000000pt" viewBox="0 0 836.000000 980.000000"
 preserveAspectRatio="xMidYMid meet">

<g transform="translate(0.000000,980.000000) scale(0.100000,-0.100000)"
fill="#000000" stroke="none">
<path d="M3815 9784 c-387 -59 -687 -165 -938 -331 -96 -64 -252 -222 -300
-303 -21 -36 -49 -104 -64 -151 l-26 -86 -405 -6 c-223 -4 -613 -7 -866 -7
-254 -1 -530 -5 -615 -10 -154 -9 -155 -9 -240 -51 -128 -63 -228 -168 -304
-317 l-57 -111 2 -413 3 -413 4175 0 4175 0 3 413 2 413 -55 107 c-85 166
-213 291 -355 346 -66 26 -275 35 -806 36 -253 0 -643 3 -866 7 l-406 6 -22
78 c-35 123 -90 211 -199 320 -55 55 -133 121 -183 153 -221 144 -536 258
-825 301 -234 34 -665 44 -828 19z"/>
<path d="M314 7078 c3 -24 110 -1076 236 -2338 292 -2910 390 -3870 451 -4410
24 -211 28 -221 118 -288 l56 -42 2780 1 c2739 0 3218 4 3266 29 40 21 98 82
108 114 28 85 101 782 462 4391 137 1375 252 2519 256 2543 l6 42 -3873 0
-3872 0 6 -42z m3921 -982 c71 -19 124 -48 172 -95 73 -70 75 -79 86 -341 13
-318 13 -3872 0 -4192 -12 -276 -13 -279 -94 -353 -125 -112 -307 -114 -432
-4 -86 75 -89 84 -98 318 -15 394 -22 2785 -10 3611 6 437 15 815 20 839 18
90 106 173 225 210 74 24 70 24 131 7z m-1982 -24 c72 -26 134 -67 157 -104
58 -96 87 -361 265 -2418 113 -1318 175 -2092 175 -2200 0 -127 -59 -223 -172
-279 -51 -26 -73 -31 -134 -31 -136 0 -248 61 -282 152 -53 142 -68 297 -313
3105 l-132 1522 33 63 c46 87 66 111 117 149 84 59 189 75 286 41z m4092 -16
c71 -32 123 -87 163 -171 l33 -69 -46 -535 c-332 -3849 -341 -3937 -397 -4089
-34 -91 -146 -152 -281 -152 -177 0 -307 132 -307 310 0 111 65 919 176 2190
174 2006 203 2290 239 2376 30 72 118 142 209 165 52 14 154 2 211 -25z"/>
</g>
</svg>
