<?xml version="1.0" standalone="no"?>
<!DOCTYPE svg PUBLIC "-//W3C//DTD SVG 20010904//EN"
 "http://www.w3.org/TR/2001/REC-SVG-20010904/DTD/svg10.dtd">
<svg version="1.0" xmlns="http://www.w3.org/2000/svg"
 width="1200.000000pt" height="630.000000pt" viewBox="0 0 1200.000000 630.000000"
 preserveAspectRatio="xMidYMid meet">

<g transform="translate(0.000000,630.000000) scale(0.100000,-0.100000)"
fill="#000000" stroke="none">
<path d="M6305 6212 c462 -344 794 -798 969 -1323 205 -615 192 -1248 -39
-1864 -46 -124 -171 -366 -254 -493 -459 -700 -1169 -1136 -2006 -1233 -49 -5
-182 -10 -295 -10 -296 0 -563 42 -840 133 -274 89 -544 229 -773 401 -43 33
-80 57 -82 55 -5 -5 116 -244 169 -332 131 -218 271 -399 451 -584 543 -560
1246 -890 2029 -952 390 -31 785 14 1177 135 354 109 728 308 1034 551 201
160 438 412 602 640 189 263 366 632 457 954 193 684 149 1438 -123 2087 -109
261 -294 569 -465 773 -544 651 -1235 1032 -2081 1145 l-50 7 120 -90z"/>
</g>
</svg>
