<?xml version="1.0" standalone="no"?>
<!DOCTYPE svg PUBLIC "-//W3C//DTD SVG 20010904//EN"
 "http://www.w3.org/TR/2001/REC-SVG-20010904/DTD/svg10.dtd">
<svg version="1.0" xmlns="http://www.w3.org/2000/svg"
 width="2000.000000pt" height="344.000000pt" viewBox="0 0 2000.000000 344.000000"
 preserveAspectRatio="xMidYMid meet">

<g transform="translate(0.000000,344.000000) scale(0.100000,-0.100000)"
fill="#000000" stroke="none">
<path d="M1575 3434 c-446 -52 -798 -222 -1090 -525 -138 -143 -219 -257 -305
-428 -298 -595 -221 -1305 200 -1836 63 -79 228 -237 314 -302 583 -433 1378
-457 1991 -59 644 419 931 1231 694 1962 -210 648 -778 1107 -1464 1184 -84 9
-273 11 -340 4z m426 -357 c293 -76 535 -253 716 -522 102 -151 194 -385 229
-580 25 -139 25 -413 0 -550 -116 -644 -586 -1106 -1152 -1132 -331 -16 -627
107 -872 361 -264 273 -402 633 -402 1046 0 405 137 766 392 1035 185 195 425
326 674 365 104 16 307 5 415 -23z"/>
<path d="M1705 2084 c64 -94 -2 -203 -145 -240 -95 -24 -212 1 -265 56 -16 17
-32 30 -36 30 -13 0 -69 -87 -85 -132 -23 -63 -20 -162 6 -231 34 -91 120
-176 234 -232 110 -55 198 -75 332 -75 247 0 465 113 550 286 25 52 29 70 28
144 0 63 -6 97 -21 130 -80 176 -308 300 -552 300 l-70 0 24 -36z"/>
<path d="M4260 3265 c-52 -16 -112 -74 -129 -124 -8 -25 -11 -425 -11 -1465 0
-1376 1 -1433 19 -1472 71 -155 341 -149 400 9 7 19 11 193 11 507 l0 478 448
5 c412 4 455 6 544 26 507 112 824 459 854 934 31 486 -244 890 -714 1047
-181 61 -205 62 -817 66 -464 3 -568 1 -605 -11z m1235 -384 c250 -83 411
-248 471 -481 22 -87 22 -254 -1 -340 -40 -154 -165 -315 -305 -393 -166 -91
-277 -107 -777 -107 l-333 0 0 676 0 675 438 -3 c427 -4 439 -4 507 -27z"/>
<path d="M8096 3265 c-88 -31 -68 9 -776 -1509 -364 -781 -665 -1436 -667
-1457 -10 -75 38 -157 112 -190 47 -22 120 -24 179 -7 77 23 100 60 251 396
l140 312 840 -3 839 -2 143 -315 c156 -344 170 -365 259 -390 145 -41 280 47
278 180 -1 51 -48 155 -668 1480 -479 1023 -676 1434 -699 1458 -53 55 -153
75 -231 47z m424 -1365 c182 -404 334 -741 337 -747 4 -10 -136 -13 -682 -13
-398 0 -685 4 -683 9 27 74 685 1497 689 1493 3 -4 156 -338 339 -742z"/>
<path d="M10579 3265 c-57 -18 -115 -73 -128 -123 -7 -25 -11 -507 -11 -1467
0 -1375 1 -1432 19 -1471 71 -155 341 -149 400 9 7 19 11 242 11 673 l0 644
254 0 253 0 666 -704 c530 -559 675 -707 707 -720 49 -19 149 -21 193 -3 45
20 105 89 113 132 10 53 -11 110 -59 162 -23 26 -320 336 -659 691 l-617 646
57 61 c31 33 296 316 587 628 292 313 540 587 553 609 27 50 27 80 3 133 -46
102 -185 145 -290 91 -16 -9 -312 -324 -657 -701 l-627 -685 -239 0 -238 0 0
630 c0 698 2 672 -65 727 -61 51 -140 64 -226 38z"/>
<path d="M13615 3266 c-61 -20 -97 -41 -135 -81 -31 -32 -35 -42 -35 -89 0
-53 2 -57 220 -382 121 -181 442 -661 713 -1066 l493 -737 -27 -53 c-115 -230
-312 -411 -473 -433 -61 -8 -149 9 -214 42 -97 49 -195 43 -259 -15 -93 -84
-91 -193 4 -265 47 -36 172 -93 243 -112 206 -54 434 -11 624 116 106 70 248
215 323 329 70 108 1347 2491 1364 2547 24 79 -13 141 -111 184 -94 42 -187
25 -239 -43 -13 -18 -253 -460 -531 -983 -279 -522 -510 -953 -514 -957 -3 -4
-262 396 -576 889 -701 1102 -677 1067 -718 1092 -44 27 -103 34 -152 17z"/>
<path d="M18420 3271 c-50 -16 -90 -42 -113 -73 -14 -18 -323 -672 -688 -1453
-581 -1246 -662 -1426 -662 -1466 1 -52 19 -92 60 -131 86 -82 246 -76 317 13
15 19 279 578 587 1244 308 666 564 1214 568 1218 5 5 257 -540 561 -1210 304
-670 564 -1232 576 -1249 47 -64 172 -93 259 -60 48 19 101 72 111 112 20 79
21 76 -666 1544 -364 778 -672 1429 -685 1446 -13 17 -40 39 -60 48 -42 20
-129 29 -165 17z"/>
</g>
</svg>
