<svg width="20" height="20" viewBox="0 0 248 248" fill="none" xmlns="http://www.w3.org/2000/svg">
<path d="M180.066 31.3391C177.354 31.993 176.652 32.5742 166.334 42.843C160.885 48.2437 156.453 52.7727 156.453 52.918C156.453 53.0391 165.123 61.8305 175.707 72.4141L194.961 91.668L205.012 81.6172C215.959 70.6703 216.201 70.4039 216.806 67.1344C217.024 65.9477 217.024 65.1969 216.806 63.9133C216.201 60.3531 216.322 60.5227 201.791 45.9914C190.505 34.7297 188.349 32.6711 187.211 32.1625C184.741 31.0242 182.416 30.7578 180.066 31.3391Z" fill="#0D7377"/>
<path d="M88.0836 121.045L31 178.129V197.552V217H50.3266H69.6289L126.858 159.795L184.062 102.566L164.76 83.2641C154.128 72.632 145.385 63.9375 145.312 63.9375C145.24 63.9375 119.495 89.6336 88.0836 121.045Z" fill="#0D7377"/>
</svg>
