<?xml version="1.0" standalone="no"?>
<!DOCTYPE svg PUBLIC "-//W3C//DTD SVG 20010904//EN"
 "http://www.w3.org/TR/2001/REC-SVG-20010904/DTD/svg10.dtd">
<svg version="1.0" xmlns="http://www.w3.org/2000/svg"
 width="512.000000pt" height="512.000000pt" viewBox="0 0 512.000000 512.000000"
 preserveAspectRatio="xMidYMid meet">

<g transform="translate(0.000000,512.000000) scale(0.100000,-0.100000)"
fill="#000000" stroke="none">
<path d="M2465 5096 c-60 -28 -87 -56 -114 -116 -19 -42 -21 -65 -21 -325 0
-260 2 -283 21 -325 11 -25 30 -56 42 -69 33 -36 115 -71 167 -71 92 0 197 76
220 160 6 19 10 159 10 310 0 268 -1 276 -24 325 -28 60 -56 87 -116 114 -60
27 -123 26 -185 -3z"/>
<path d="M848 4429 c-48 -14 -113 -71 -140 -123 -30 -56 -30 -146 -1 -201 31
-58 399 -420 447 -440 48 -20 132 -21 177 -2 83 34 139 116 141 204 2 95 -10
113 -221 326 -108 109 -213 207 -234 218 -46 24 -119 32 -169 18z"/>
<path d="M4150 4431 c-59 -19 -95 -50 -281 -238 -152 -153 -199 -207 -209
-238 -49 -152 54 -304 209 -307 93 -2 112 10 324 221 109 108 208 214 219 236
56 107 8 248 -105 306 -44 23 -120 32 -157 20z"/>
<path d="M2439 3949 c-471 -39 -895 -323 -1118 -750 -230 -441 -201 -986 74
-1404 281 -425 756 -659 1268 -623 552 38 1036 410 1215 933 267 785 -198
1625 -1004 1814 -73 17 -311 45 -334 39 -3 0 -48 -4 -101 -9z"/>
<path d="M135 2766 c-60 -28 -87 -56 -114 -116 -26 -57 -26 -123 0 -180 25
-54 42 -75 94 -109 l40 -26 287 -3 c176 -2 301 1 325 7 86 24 163 127 163 221
0 92 -76 197 -160 220 -19 6 -159 10 -310 10 -268 0 -276 -1 -325 -24z"/>
<path d="M4325 2767 c-27 -14 -60 -35 -72 -48 -34 -37 -63 -110 -63 -159 0
-92 76 -197 160 -220 19 -6 159 -10 310 -10 268 0 276 1 325 24 60 28 87 56
114 116 26 57 26 123 0 180 -25 54 -42 75 -94 109 l-40 26 -295 3 c-293 2
-295 2 -345 -21z"/>
<path d="M1215 1473 c-75 -15 -95 -30 -288 -222 -109 -108 -207 -212 -217
-231 -49 -95 -34 -188 44 -266 78 -78 171 -93 266 -44 54 28 416 397 435 444
48 115 -9 256 -120 301 -36 15 -93 23 -120 18z"/>
<path d="M3831 1469 c-150 -29 -229 -200 -156 -338 21 -39 395 -406 435 -427
48 -24 144 -24 190 0 49 26 88 64 113 111 29 55 29 145 0 200 -33 61 -410 430
-453 443 -60 18 -84 20 -129 11z"/>
<path d="M2464 906 c-57 -27 -110 -84 -124 -136 -6 -19 -10 -159 -10 -310 0
-255 2 -278 21 -320 11 -25 30 -56 42 -69 33 -36 115 -71 167 -71 94 0 197 77
221 163 6 24 9 149 7 325 l-3 287 -26 40 c-34 52 -55 69 -109 94 -60 27 -123
26 -186 -3z"/>
</g>
</svg>
